<svg width="18" height="18" viewBox="0 0 16 16" fill="none" xmlns="http://www.w3.org/2000/svg">
<path d="M15.7578 3.49995C15.7578 2.90321 15.5208 2.33092 15.0988 1.90896C14.6768 1.487 14.1045 1.24995 13.5078 1.24995H12.9453V0.703269C12.9453 0.400574 12.7126 0.140769 12.4099 0.125652C12.3338 0.121987 12.2578 0.133802 12.1865 0.160381C12.1151 0.18696 12.0499 0.227749 11.9948 0.280276C11.9396 0.332804 11.8958 0.395976 11.8658 0.465966C11.8358 0.535956 11.8203 0.611305 11.8203 0.687449V1.24995H3.94531V0.703269C3.94531 0.400574 3.71258 0.140769 3.40988 0.125652C3.33383 0.121987 3.25782 0.133802 3.18647 0.160381C3.11511 0.18696 3.0499 0.227749 2.99477 0.280276C2.93965 0.332804 2.89576 0.395976 2.86577 0.465966C2.83579 0.535956 2.82032 0.611305 2.82031 0.687449V1.24995H2.25781C1.66108 1.24995 1.08878 1.487 0.666822 1.90896C0.244865 2.33092 0.0078125 2.90321 0.0078125 3.49995V3.92182C0.0078125 3.95912 0.0226283 3.99489 0.0490006 4.02126C0.0753729 4.04763 0.111141 4.06245 0.148438 4.06245H15.6172C15.6545 4.06245 15.6903 4.04763 15.7166 4.02126C15.743 3.99489 15.7578 3.95912 15.7578 3.92182V3.49995ZM0.0078125 13.6249C0.0078125 14.2217 0.244865 14.794 0.666822 15.2159C1.08878 15.6379 1.66108 15.8749 2.25781 15.8749H13.5078C14.1045 15.8749 14.6768 15.6379 15.0988 15.2159C15.5208 14.794 15.7578 14.2217 15.7578 13.6249V5.29292C15.7578 5.26495 15.7467 5.23812 15.7269 5.21834C15.7071 5.19856 15.6803 5.18745 15.6523 5.18745H0.113281C0.0853092 5.18745 0.0584829 5.19856 0.0387036 5.21834C0.0189244 5.23812 0.0078125 5.26495 0.0078125 5.29292V13.6249ZM12.1016 6.31245C12.2684 6.31245 12.4316 6.36193 12.5703 6.45465C12.7091 6.54736 12.8172 6.67913 12.8811 6.83331C12.9449 6.98748 12.9617 7.15713 12.9291 7.32081C12.8965 7.48448 12.8162 7.63482 12.6982 7.75282C12.5802 7.87082 12.4298 7.95118 12.2662 7.98374C12.1025 8.01629 11.9328 7.99958 11.7787 7.93572C11.6245 7.87186 11.4927 7.76371 11.4 7.62496C11.3073 7.48621 11.2578 7.32308 11.2578 7.1562C11.2578 6.93242 11.3467 6.71781 11.5049 6.55958C11.6632 6.40134 11.8778 6.31245 12.1016 6.31245ZM12.1016 9.12495C12.2684 9.12495 12.4316 9.17443 12.5703 9.26715C12.7091 9.35986 12.8172 9.49163 12.8811 9.64581C12.9449 9.79998 12.9617 9.96963 12.9291 10.1333C12.8965 10.297 12.8162 10.4473 12.6982 10.5653C12.5802 10.6833 12.4298 10.7637 12.2662 10.7962C12.1025 10.8288 11.9328 10.8121 11.7787 10.7482C11.6245 10.6844 11.4927 10.5762 11.4 10.4375C11.3073 10.2987 11.2578 10.1356 11.2578 9.9687C11.2578 9.74492 11.3467 9.53031 11.5049 9.37208C11.6632 9.21384 11.8778 9.12495 12.1016 9.12495ZM9.28906 6.31245C9.45594 6.31245 9.61907 6.36193 9.75782 6.45465C9.89658 6.54736 10.0047 6.67913 10.0686 6.83331C10.1324 6.98748 10.1492 7.15713 10.1166 7.32081C10.084 7.48448 10.0037 7.63482 9.88568 7.75282C9.76768 7.87082 9.61734 7.95118 9.45367 7.98374C9.29 8.01629 9.12035 7.99958 8.96617 7.93572C8.812 7.87186 8.68022 7.76371 8.58751 7.62496C8.4948 7.48621 8.44531 7.32308 8.44531 7.1562C8.44531 6.93242 8.53421 6.71781 8.69244 6.55958C8.85068 6.40134 9.06529 6.31245 9.28906 6.31245ZM9.28906 9.12495C9.45594 9.12495 9.61907 9.17443 9.75782 9.26715C9.89658 9.35986 10.0047 9.49163 10.0686 9.64581C10.1324 9.79998 10.1492 9.96963 10.1166 10.1333C10.084 10.297 10.0037 10.4473 9.88568 10.5653C9.76768 10.6833 9.61734 10.7637 9.45367 10.7962C9.29 10.8288 9.12035 10.8121 8.96617 10.7482C8.812 10.6844 8.68022 10.5762 8.58751 10.4375C8.4948 10.2987 8.44531 10.1356 8.44531 9.9687C8.44531 9.74492 8.53421 9.53031 8.69244 9.37208C8.85068 9.21384 9.06529 9.12495 9.28906 9.12495ZM9.28906 11.9374C9.45594 11.9374 9.61907 11.9869 9.75782 12.0796C9.89658 12.1724 10.0047 12.3041 10.0686 12.4583C10.1324 12.6125 10.1492 12.7821 10.1166 12.9458C10.084 13.1095 10.0037 13.2598 9.88568 13.3778C9.76768 13.4958 9.61734 13.5762 9.45367 13.6087C9.29 13.6413 9.12035 13.6246 8.96617 13.5607C8.812 13.4969 8.68022 13.3887 8.58751 13.25C8.4948 13.1112 8.44531 12.9481 8.44531 12.7812C8.44531 12.5574 8.53421 12.3428 8.69244 12.1846C8.85068 12.0263 9.06529 11.9374 9.28906 11.9374ZM6.47656 9.12495C6.64344 9.12495 6.80657 9.17443 6.94532 9.26715C7.08408 9.35986 7.19222 9.49163 7.25609 9.64581C7.31995 9.79998 7.33666 9.96963 7.3041 10.1333C7.27154 10.297 7.19118 10.4473 7.07318 10.5653C6.95518 10.6833 6.80484 10.7637 6.64117 10.7962C6.4775 10.8288 6.30785 10.8121 6.15367 10.7482C5.9995 10.6844 5.86772 10.5762 5.77501 10.4375C5.6823 10.2987 5.63281 10.1356 5.63281 9.9687C5.63281 9.74492 5.72171 9.53031 5.87994 9.37208C6.03817 9.21384 6.25279 9.12495 6.47656 9.12495ZM6.47656 11.9374C6.64344 11.9374 6.80657 11.9869 6.94532 12.0796C7.08408 12.1724 7.19222 12.3041 7.25609 12.4583C7.31995 12.6125 7.33666 12.7821 7.3041 12.9458C7.27154 13.1095 7.19118 13.2598 7.07318 13.3778C6.95518 13.4958 6.80484 13.5762 6.64117 13.6087C6.4775 13.6413 6.30785 13.6246 6.15367 13.5607C5.9995 13.4969 5.86772 13.3887 5.77501 13.25C5.6823 13.1112 5.63281 12.9481 5.63281 12.7812C5.63281 12.5574 5.72171 12.3428 5.87994 12.1846C6.03817 12.0263 6.25279 11.9374 6.47656 11.9374ZM3.66406 9.12495C3.83094 9.12495 3.99407 9.17443 4.13282 9.26715C4.27158 9.35986 4.37972 9.49163 4.44359 9.64581C4.50745 9.79998 4.52416 9.96963 4.4916 10.1333C4.45904 10.297 4.37868 10.4473 4.26068 10.5653C4.14268 10.6833 3.99234 10.7637 3.82867 10.7962C3.665 10.8288 3.49535 10.8121 3.34117 10.7482C3.187 10.6844 3.05522 10.5762 2.96251 10.4375C2.8698 10.2987 2.82031 10.1356 2.82031 9.9687C2.82031 9.74492 2.90921 9.53031 3.06744 9.37208C3.22567 9.21384 3.44029 9.12495 3.66406 9.12495ZM3.66406 11.9374C3.83094 11.9374 3.99407 11.9869 4.13282 12.0796C4.27158 12.1724 4.37972 12.3041 4.44359 12.4583C4.50745 12.6125 4.52416 12.7821 4.4916 12.9458C4.45904 13.1095 4.37868 13.2598 4.26068 13.3778C4.14268 13.4958 3.99234 13.5762 3.82867 13.6087C3.665 13.6413 3.49535 13.6246 3.34117 13.5607C3.187 13.4969 3.05522 13.3887 2.96251 13.25C2.8698 13.1112 2.82031 12.9481 2.82031 12.7812C2.82031 12.5574 2.90921 12.3428 3.06744 12.1846C3.22567 12.0263 3.44029 11.9374 3.66406 11.9374Z" fill="#456277"/>
</svg>
