<svg width="22" height="22" viewBox="0 0 20 20" fill="none" xmlns="http://www.w3.org/2000/svg">
<path d="M14.1562 2.28125H13.7328C13.6732 2.28119 13.615 2.26317 13.5657 2.22955C13.5165 2.19593 13.4785 2.14825 13.4567 2.09273C13.3427 1.79878 13.1425 1.54612 12.8824 1.36787C12.6223 1.18961 12.3144 1.09407 11.9991 1.09375H8.00092C7.6856 1.09407 7.37773 1.18961 7.11763 1.36787C6.85754 1.54612 6.65734 1.79878 6.54326 2.09273C6.5215 2.14825 6.48352 2.19593 6.43427 2.22955C6.38503 2.26317 6.3268 2.28119 6.26717 2.28125H5.84375C5.21386 2.28125 4.60977 2.53147 4.16437 2.97687C3.71897 3.42227 3.46875 4.02636 3.46875 4.65625V16.5312C3.46875 17.1611 3.71897 17.7652 4.16437 18.2106C4.60977 18.656 5.21386 18.9062 5.84375 18.9062H14.1562C14.7861 18.9062 15.3902 18.656 15.8356 18.2106C16.281 17.7652 16.5312 17.1611 16.5312 16.5312V4.65625C16.5312 4.02636 16.281 3.42227 15.8356 2.97687C15.3902 2.53147 14.7861 2.28125 14.1562 2.28125ZM12.3702 4.65625H7.62982C7.47235 4.65625 7.32133 4.59369 7.20998 4.48234C7.09863 4.37099 7.03607 4.21997 7.03607 4.0625C7.03607 3.90503 7.09863 3.75401 7.20998 3.64266C7.32133 3.53131 7.47235 3.46875 7.62982 3.46875H12.3702C12.5276 3.46875 12.6787 3.53131 12.79 3.64266C12.9014 3.75401 12.9639 3.90503 12.9639 4.0625C12.9639 4.21997 12.9014 4.37099 12.79 4.48234C12.6787 4.59369 12.5276 4.65625 12.3702 4.65625Z" fill="black"/>
<path d="M12.375 9L9.75 12L8.625 10.875" stroke="white" stroke-miterlimit="10" stroke-linecap="round"/>
</svg>
