<svg width="12" height="14" viewBox="0 0 12 14" fill="none" xmlns="http://www.w3.org/2000/svg">
<path d="M10.5444 1.8833H8.16431V1.45056C8.16431 0.733567 7.58309 0.152344 6.86609 0.152344H5.13514C4.41814 0.152344 3.83692 0.733567 3.83692 1.45056V1.8833H1.45685C0.859371 1.8833 0.375 2.36767 0.375 2.96515V3.83063C0.375 4.06964 0.568732 4.26337 0.80774 4.26337H11.1935C11.4325 4.26337 11.6262 4.06964 11.6262 3.83063V2.96515C11.6262 2.36767 11.1419 1.8833 10.5444 1.8833ZM4.7024 1.45056C4.7024 1.21201 4.89659 1.01782 5.13514 1.01782H6.86609C7.10464 1.01782 7.29883 1.21201 7.29883 1.45056V1.8833H4.7024V1.45056Z" fill="#DB0008"/>
<path d="M1.19577 5.12891C1.11856 5.12891 1.05703 5.19344 1.0607 5.27057L1.41771 12.7635C1.45071 13.457 2.0203 14.0001 2.71431 14.0001H9.286C9.98001 14.0001 10.5496 13.457 10.5826 12.7635L10.9396 5.27057C10.9433 5.19344 10.8818 5.12891 10.8045 5.12891H1.19577ZM7.73111 6.21076C7.73111 5.97167 7.92477 5.77802 8.16385 5.77802C8.40294 5.77802 8.59659 5.97167 8.59659 6.21076V11.8364C8.59659 12.0755 8.40294 12.2691 8.16385 12.2691C7.92477 12.2691 7.73111 12.0755 7.73111 11.8364V6.21076ZM5.56742 6.21076C5.56742 5.97167 5.76107 5.77802 6.00016 5.77802C6.23924 5.77802 6.4329 5.97167 6.4329 6.21076V11.8364C6.4329 12.0755 6.23924 12.2691 6.00016 12.2691C5.76107 12.2691 5.56742 12.0755 5.56742 11.8364V6.21076ZM3.40372 6.21076C3.40372 5.97167 3.59737 5.77802 3.83646 5.77802C4.07555 5.77802 4.2692 5.97167 4.2692 6.21076V11.8364C4.2692 12.0755 4.07555 12.2691 3.83646 12.2691C3.59737 12.2691 3.40372 12.0755 3.40372 11.8364V6.21076Z" fill="#DB0008"/>
</svg>
