<svg width="53" height="53" viewBox="0 0 53 53" fill="none" xmlns="http://www.w3.org/2000/svg">
<path d="M26.4991 52.9983C41.1342 52.9983 52.9983 41.1342 52.9983 26.4991C52.9983 11.8641 41.1342 0 26.4991 0C11.8641 0 0 11.8641 0 26.4991C0 41.1342 11.8641 52.9983 26.4991 52.9983Z" fill="#FD995B"/>
<path d="M39.7491 31.9782C36.8905 31.9782 34.1644 31.3555 31.6503 30.1266C31.2561 29.9378 30.799 29.908 30.3816 30.0504C29.9643 30.1961 29.6231 30.5009 29.431 30.8951L28.2385 33.3628C24.6611 31.3091 21.6932 28.3379 19.6362 24.7605L22.1073 23.568C22.5048 23.3759 22.8062 23.0348 22.9519 22.6174C23.0944 22.2 23.0679 21.7429 22.8758 21.3487C21.6435 18.838 21.0208 16.1119 21.0208 13.2499C21.0208 12.3357 20.2788 11.5938 19.3646 11.5938H13.2499C12.3357 11.5938 11.5938 12.3357 11.5938 13.2499C11.5938 28.7751 24.2239 41.4053 39.7491 41.4053C40.6633 41.4053 41.4053 40.6633 41.4053 39.7491V33.6344C41.4053 32.7202 40.6633 31.9782 39.7491 31.9782Z" fill="#FAFAFA"/>
</svg>
