<svg width="25" height="25" viewBox="0 0 25 25" fill="none" xmlns="http://www.w3.org/2000/svg">
<circle cx="12.5" cy="12.5" r="12.5" fill="#00C614"/>
<path d="M20.7143 8.02859C20.6187 8.27251 20.4276 8.44251 20.2365 8.6199C17.0195 11.5986 13.8105 14.5848 10.6015 17.5635C10.3626 17.7852 10.0919 17.9257 9.74946 17.8222C9.60613 17.7778 9.47076 17.6965 9.36724 17.6005C7.99764 16.3365 6.63599 15.0726 5.27435 13.8087C5.04342 13.5943 4.93991 13.343 5.03546 13.0474C5.12305 12.7813 5.32212 12.6113 5.60878 12.5521C5.83971 12.5004 6.0547 12.5447 6.24581 12.6778C6.30951 12.7221 6.37322 12.7739 6.42896 12.8256C7.55968 13.8752 8.6904 14.9174 9.81316 15.967C9.85298 16.0039 9.89279 16.0557 9.96446 16.137C10.0122 16.0704 10.0441 16.0113 10.0839 15.9743C13.1496 13.1287 16.2153 10.283 19.281 7.42989C19.5437 7.18597 19.8304 7.06771 20.1967 7.19336C20.4754 7.28945 20.6187 7.49641 20.7063 7.74033C20.7143 7.84381 20.7143 7.9325 20.7143 8.02859Z" fill="white"/>
</svg>
