<svg width="48" height="32" viewBox="0 0 48 32" fill="none" xmlns="http://www.w3.org/2000/svg">
<path d="M46.5938 0.132812H14.1792V4.35156C14.1792 5.12884 13.5502 5.75781 12.773 5.75781C11.9957 5.75781 11.3667 5.12884 11.3667 4.35156V0.132812H1.40625C0.618656 0.132812 0 0.751469 0 1.53906V9.97656C0 10.764 0.618656 11.3828 1.40625 11.3828C3.74072 11.3828 5.625 13.2671 5.625 15.6016C5.625 17.9358 3.74072 19.8203 1.40625 19.8203C0.618656 19.8203 0 20.439 0 21.2266V29.6641C0 30.4515 0.618656 31.0703 1.40625 31.0703H11.25V26.8516C11.25 26.0743 11.879 25.4453 12.6562 25.4453C13.4335 25.4453 14.0625 26.0743 14.0625 26.8516V31.0703H46.5938C47.3813 31.0703 48 30.4515 48 29.6641V1.53906C48 0.751469 47.3813 0.132812 46.5938 0.132812ZM14.0625 21.2266C14.0625 22.0038 13.4335 22.6328 12.6562 22.6328C11.879 22.6328 11.25 22.0038 11.25 21.2266V18.4141C11.25 17.6368 11.879 17.0078 12.6562 17.0078C13.4335 17.0078 14.0625 17.6368 14.0625 18.4141V21.2266ZM14.0625 12.7891C14.0625 13.5663 13.4335 14.1953 12.6562 14.1953C11.879 14.1953 11.25 13.5663 11.25 12.7891V9.97656C11.25 9.19928 11.879 8.57031 12.6562 8.57031C13.4335 8.57031 14.0625 9.19928 14.0625 9.97656V12.7891Z" fill="#FD3018"/>
<path d="M5.625 15.6016C5.625 17.9358 3.74072 19.8203 1.40625 19.8203C0.618656 19.8203 0 20.439 0 21.2266V29.6641C0 30.4515 0.618656 31.0703 1.40625 31.0703H11.25V26.8516C11.25 26.0743 11.879 25.4453 12.6562 25.4453C13.4335 25.4453 14.0625 26.0743 14.0625 26.8516V31.0703H46.5938C47.3813 31.0703 48 30.4515 48 29.6641V15.6016H5.625ZM14.0625 21.2266C14.0625 22.0038 13.4335 22.6328 12.6562 22.6328C11.879 22.6328 11.25 22.0038 11.25 21.2266V18.4141C11.25 17.6368 11.879 17.0078 12.6562 17.0078C13.4335 17.0078 14.0625 17.6368 14.0625 18.4141V21.2266Z" fill="#FD3018"/>
<path d="M26.9062 14.1953C24.5799 14.1953 22.6875 12.3029 22.6875 9.97656C22.6875 7.65025 24.5799 5.75781 26.9062 5.75781C29.2326 5.75781 31.125 7.65025 31.125 9.97656C31.125 12.3029 29.2326 14.1953 26.9062 14.1953Z" fill="white"/>
<path d="M38.1562 25.4453C35.8299 25.4453 33.9375 23.5529 33.9375 21.2266C33.9375 18.9003 35.8299 17.0078 38.1562 17.0078C40.4826 17.0078 42.375 18.9003 42.375 21.2266C42.375 23.5529 40.4826 25.4453 38.1562 25.4453Z" fill="white"/>
<path d="M39.338 7.95205L34.2474 15.6021L32.5318 18.1614L28.088 24.827C27.6662 25.4459 26.7943 25.6428 26.1192 25.2208C25.4724 24.7709 25.3037 23.899 25.7256 23.252L30.8162 15.6021L32.5318 13.0427L36.9756 6.37705C37.4256 5.73027 38.2974 5.56152 38.9444 5.9833C39.5912 6.43339 39.7599 7.30527 39.338 7.95205Z" fill="white"/>
<path d="M34.2474 15.6016L32.5318 18.1608L28.088 24.8265C27.6662 25.4453 26.7943 25.6422 26.1192 25.2202C25.4724 24.7703 25.3037 23.8984 25.7256 23.2515L30.8162 15.6016H34.2474Z" fill="white"/>
</svg>
