<svg width="41" height="42" viewBox="0 0 41 42" fill="none" xmlns="http://www.w3.org/2000/svg">
<path d="M39.1163 20.5022L40.9152 15.8104C41.1125 15.2928 40.9587 14.706 40.5257 14.355L36.6257 11.1929L35.8364 6.22953C35.7493 5.68117 35.3188 5.25325 34.7705 5.16612L29.8071 4.3769L26.6476 0.474325C26.2991 0.0412752 25.6995 -0.11247 25.1947 0.0848364L20.5003 1.88622L15.8085 0.0873988C15.2884 -0.11247 14.7067 0.0464 14.3556 0.476887L11.1936 4.37946L6.2302 5.16869C5.6844 5.25581 5.25391 5.6863 5.16679 6.23209L4.37756 11.1955L0.474991 14.3575C0.0445039 14.706 -0.111804 15.2928 0.0855027 15.8104L1.88432 20.5022L0.0855027 25.194C-0.114366 25.7116 0.0445039 26.2984 0.474991 26.6469L4.37756 29.8064L5.16679 34.7698C5.25391 35.3182 5.68184 35.7487 6.2302 35.8358L11.1936 36.625L14.3556 40.525C14.7067 40.9606 15.2935 41.1144 15.8111 40.9145L20.5003 39.1182L25.1921 40.9171C25.3408 40.9734 25.4945 41.0016 25.6508 41.0016C26.0275 41.0016 26.399 40.8351 26.6476 40.525L29.8071 36.625L34.7705 35.8358C35.3188 35.7487 35.7493 35.3182 35.8364 34.7698L36.6257 29.8064L40.5257 26.6469C40.9587 26.2959 41.1125 25.7116 40.9152 25.194L39.1163 20.5022Z" fill="#007BFD"/>
<path d="M16.6561 17.9412C14.537 17.9412 12.8125 16.2167 12.8125 14.0975C12.8125 11.9784 14.537 10.2539 16.6561 10.2539C18.7753 10.2539 20.4998 11.9784 20.4998 14.0975C20.4998 16.2167 18.7753 17.9412 16.6561 17.9412ZM16.6561 12.8163C15.9489 12.8163 15.3749 13.3903 15.3749 14.0975C15.3749 14.8048 15.9489 15.3788 16.6561 15.3788C17.3634 15.3788 17.9373 14.8048 17.9373 14.0975C17.9373 13.3903 17.3634 12.8163 16.6561 12.8163Z" fill="#FAFAFA"/>
<path d="M24.3436 30.7537C22.2245 30.7537 20.5 29.0292 20.5 26.91C20.5 24.7909 22.2245 23.0664 24.3436 23.0664C26.4628 23.0664 28.1873 24.7909 28.1873 26.91C28.1873 29.0292 26.4628 30.7537 24.3436 30.7537ZM24.3436 25.6288C23.639 25.6288 23.0624 26.2054 23.0624 26.91C23.0624 27.6147 23.639 28.1913 24.3436 28.1913C25.0483 28.1913 25.6248 27.6147 25.6248 26.91C25.6248 26.2054 25.0483 25.6288 24.3436 25.6288Z" fill="#FAFAFA"/>
<path d="M14.0945 30.7528C13.8357 30.7528 13.5769 30.6759 13.3514 30.5145C12.7749 30.1019 12.6416 29.3024 13.0542 28.7259L25.8663 10.7889C26.2788 10.2124 27.0783 10.0791 27.6549 10.4917C28.2314 10.9017 28.3621 11.7037 27.9521 12.2777L15.14 30.2147C14.8863 30.5657 14.4943 30.7528 14.0945 30.7528Z" fill="#FAFAFA"/>
</svg>
