<svg width="20" height="13" viewBox="0 0 20 13" fill="none" xmlns="http://www.w3.org/2000/svg">
<path d="M18.7928 0H1.20724C0.540501 0 0 0.52349 0 1.16925V10.952C0 11.5977 0.540501 12.1212 1.20724 12.1212H18.7928C19.4595 12.1212 20 11.5977 20 10.952V1.16925C20 0.52349 19.4595 0 18.7928 0Z" fill="#FDDD5A"/>
<path d="M18.7879 2.01257e-09H16.9697C17.1289 -9.00707e-06 17.2865 0.0302283 17.4336 0.0889854C17.5807 0.147742 17.7143 0.233868 17.8268 0.342445C17.9394 0.451021 18.0287 0.579922 18.0896 0.721786C18.1505 0.86365 18.1819 1.0157 18.1818 1.16925V10.952C18.1819 11.1055 18.1505 11.2576 18.0896 11.3994C18.0287 11.5413 17.9394 11.6702 17.8268 11.7788C17.7143 11.8873 17.5807 11.9735 17.4336 12.0322C17.2865 12.091 17.1289 12.1212 16.9697 12.1212H18.7879C18.9471 12.1212 19.1047 12.091 19.2518 12.0322C19.3988 11.9735 19.5325 11.8873 19.645 11.7788C19.7576 11.6702 19.8469 11.5413 19.9078 11.3994C19.9687 11.2576 20 11.1055 20 10.952V1.16925C20 1.0157 19.9687 0.86365 19.9078 0.721786C19.8469 0.579922 19.7576 0.451021 19.645 0.342445C19.5325 0.233868 19.3988 0.147742 19.2518 0.0889854C19.1047 0.0302283 18.9471 -9.00707e-06 18.7879 2.01257e-09V2.01257e-09Z" fill="#FED030"/>
<path d="M20 4.24219H0V4.84825H20V4.24219Z" fill="#E4222E"/>
<path d="M6.61641 0.0194875V12.1212H6.02637V0.0194875C6.02637 0.0129739 6.02677 0.00646647 6.02756 0H6.61524C6.61602 0.00646681 6.61642 0.0129743 6.61641 0.0194875Z" fill="#E4222E"/>
<path d="M3.90109 3.52626L5.82882 4.50431C5.97706 4.57952 6.10147 4.69382 6.18834 4.8346C6.27522 4.97538 6.32119 5.1372 6.32119 5.30221C6.32119 5.46722 6.27522 5.62904 6.18834 5.76982C6.10147 5.9106 5.97706 6.0249 5.82882 6.10011L3.90109 7.07816C3.76316 7.14814 3.60941 7.18184 3.45457 7.17605C3.29972 7.17025 3.14898 7.12515 3.01677 7.04506C2.88457 6.96497 2.77535 6.85258 2.69957 6.71867C2.62378 6.58475 2.58398 6.43379 2.58398 6.28026V4.32416C2.58398 4.17063 2.62378 4.01967 2.69957 3.88575C2.77535 3.75184 2.88457 3.63945 3.01677 3.55936C3.14898 3.47927 3.29972 3.43417 3.45457 3.42837C3.60941 3.42258 3.76316 3.45628 3.90109 3.52626V3.52626Z" fill="#FED030"/>
<path d="M8.74139 3.52626L6.81366 4.50431C6.66542 4.57952 6.54101 4.69381 6.45414 4.8346C6.36726 4.97538 6.32129 5.1372 6.32129 5.30221C6.32129 5.46722 6.36726 5.62904 6.45414 5.76982C6.54101 5.9106 6.66542 6.0249 6.81366 6.10011L8.74139 7.07816C8.87931 7.14814 9.03307 7.18184 9.18791 7.17605C9.34275 7.17025 9.4935 7.12515 9.6257 7.04506C9.7579 6.96497 9.86713 6.85258 9.94291 6.71867C10.0187 6.58475 10.0585 6.43379 10.0585 6.28026V4.32416C10.0585 4.17063 10.0187 4.01967 9.94291 3.88575C9.86713 3.75184 9.7579 3.63945 9.6257 3.55936C9.4935 3.47927 9.34275 3.43417 9.18791 3.42837C9.03307 3.42258 8.87932 3.45628 8.74139 3.52626V3.52626Z" fill="#FED030"/>
<path d="M3.90109 2.94032L5.82882 3.91837C5.97706 3.99358 6.10147 4.10788 6.18834 4.24866C6.27522 4.38945 6.32119 4.55126 6.32119 4.71627C6.32119 4.88129 6.27522 5.0431 6.18834 5.18388C6.10147 5.32467 5.97706 5.43896 5.82882 5.51417L3.90109 6.49222C3.76316 6.5622 3.60941 6.5959 3.45457 6.59011C3.29972 6.58431 3.14898 6.53921 3.01677 6.45912C2.88457 6.37903 2.77535 6.26665 2.69957 6.13273C2.62378 5.99881 2.58398 5.84785 2.58398 5.69432V3.73822C2.58398 3.58469 2.62378 3.43373 2.69957 3.29981C2.77535 3.1659 2.88457 3.05351 3.01677 2.97342C3.14898 2.89334 3.29972 2.84823 3.45457 2.84244C3.60941 2.83664 3.76316 2.87035 3.90109 2.94032Z" fill="#EB304A"/>
<path d="M8.74139 2.94032L6.81366 3.91837C6.66542 3.99358 6.54101 4.10788 6.45414 4.24866C6.36726 4.38945 6.32129 4.55126 6.32129 4.71627C6.32129 4.88129 6.36726 5.0431 6.45414 5.18388C6.54101 5.32467 6.66542 5.43896 6.81366 5.51417L8.74139 6.49222C8.87931 6.5622 9.03307 6.5959 9.18791 6.59011C9.34275 6.58431 9.4935 6.53921 9.6257 6.45912C9.7579 6.37903 9.86713 6.26665 9.94291 6.13273C10.0187 5.99881 10.0585 5.84785 10.0585 5.69432V3.73822C10.0585 3.58469 10.0187 3.43373 9.94291 3.29981C9.86713 3.1659 9.7579 3.05351 9.6257 2.97342C9.4935 2.89334 9.34275 2.84823 9.18791 2.84244C9.03307 2.83664 8.87932 2.87034 8.74139 2.94032V2.94032Z" fill="#EB304A"/>
<path d="M8.74133 2.94032L8.50293 3.06126C8.65406 3.13494 8.78125 3.24923 8.86999 3.39108C8.95873 3.53293 9.00544 3.69663 9.0048 3.86352V5.81963C9.0055 5.94347 8.97997 6.06609 8.92985 6.17954C8.87973 6.293 8.80613 6.39477 8.71382 6.47828L8.74133 6.49222C8.87925 6.5622 9.033 6.5959 9.18785 6.59011C9.34269 6.58431 9.49344 6.53921 9.62564 6.45912C9.75784 6.37903 9.86707 6.26664 9.94285 6.13273C10.0186 5.99881 10.0584 5.84785 10.0584 5.69432V3.73822C10.0584 3.58469 10.0186 3.43373 9.94285 3.29981C9.86706 3.1659 9.75784 3.05351 9.62564 2.97342C9.49344 2.89334 9.34269 2.84823 9.18785 2.84244C9.033 2.83664 8.87925 2.87034 8.74133 2.94032V2.94032Z" fill="#E4222E"/>
<path d="M6.32085 5.80521C6.98346 5.80521 7.52062 5.27299 7.52062 4.61647C7.52062 3.95995 6.98346 3.42773 6.32085 3.42773C5.65824 3.42773 5.12109 3.95995 5.12109 4.61647C5.12109 5.27299 5.65824 5.80521 6.32085 5.80521Z" fill="white"/>
<path d="M6.32132 3.42773C6.16628 3.42762 6.01271 3.45738 5.86914 3.51536C6.09012 3.60446 6.27927 3.7568 6.41244 3.95294C6.5456 4.14907 6.61672 4.38009 6.61672 4.61647C6.61672 4.85285 6.5456 5.08387 6.41244 5.28C6.27927 5.47614 6.09012 5.62849 5.86914 5.71758C6.03317 5.78371 6.20994 5.81304 6.38676 5.80346C6.56358 5.79389 6.73607 5.74566 6.89185 5.66222C7.04763 5.57878 7.18284 5.46221 7.28777 5.32087C7.3927 5.17954 7.46475 5.01694 7.49875 4.84474C7.53276 4.67255 7.52787 4.49503 7.48443 4.32494C7.441 4.15484 7.36011 3.99637 7.24755 3.86092C7.135 3.72546 6.99357 3.61637 6.83343 3.54147C6.67329 3.46658 6.4984 3.42774 6.32132 3.42773Z" fill="#E1E1E3"/>
<path d="M17.1972 8.37759H11.8868C11.8086 8.37759 11.7335 8.3468 11.6782 8.29198C11.6229 8.23716 11.5918 8.16281 11.5918 8.08528C11.5918 8.00775 11.6229 7.9334 11.6782 7.87858C11.7335 7.82377 11.8086 7.79297 11.8868 7.79297H17.1972C17.2755 7.79297 17.3505 7.82377 17.4058 7.87858C17.4612 7.9334 17.4923 8.00775 17.4923 8.08528C17.4923 8.16281 17.4612 8.23716 17.4058 8.29198C17.3505 8.3468 17.2755 8.37759 17.1972 8.37759ZM14.8371 9.54684H11.8868C11.8086 9.54684 11.7335 9.51605 11.6782 9.46123C11.6229 9.40641 11.5918 9.33206 11.5918 9.25453C11.5918 9.177 11.6229 9.10265 11.6782 9.04783C11.7335 8.99301 11.8086 8.96222 11.8868 8.96222H14.8371C14.9153 8.96222 14.9903 8.99301 15.0457 9.04783C15.101 9.10265 15.1321 9.177 15.1321 9.25453C15.1321 9.33206 15.101 9.40641 15.0457 9.46123C14.9903 9.51605 14.9153 9.54684 14.8371 9.54684Z" fill="white"/>
</svg>
