<svg width="22" height="22" viewBox="0 0 22 22" fill="none" xmlns="http://www.w3.org/2000/svg">
<path d="M20.3113 8.14258C19.7416 7.78035 19.0296 7.51695 18.2454 7.37215C18.1132 7.34684 17.9914 7.28332 17.895 7.18945C17.7987 7.09558 17.7319 6.97549 17.7031 6.84406C17.3654 5.36121 16.6461 4.08848 15.5912 3.12383C14.358 1.9959 12.7278 1.375 11 1.375C9.48105 1.375 8.07812 1.85109 6.94504 2.75C6.17977 3.36014 5.56336 4.13642 5.1425 5.02004C5.09568 5.11968 5.02569 5.20666 4.93838 5.27371C4.85107 5.34077 4.74897 5.38595 4.64062 5.40547C3.47488 5.61602 2.46941 6.03625 1.70113 6.63867C0.588672 7.51223 0 8.74672 0 10.2094C0 13.1055 2.40324 15.125 5.84375 15.125H10.3125V9.64434C10.3125 9.27437 10.597 8.95684 10.9669 8.93836C11.0599 8.93388 11.1528 8.94832 11.24 8.98081C11.3272 9.01329 11.4069 9.06314 11.4743 9.12735C11.5416 9.19155 11.5953 9.26876 11.6319 9.3543C11.6686 9.43984 11.6875 9.53194 11.6875 9.625V15.125H17.0156C20.1369 15.125 22 13.6537 22 11.1891C22 9.89785 21.4161 8.84426 20.3113 8.14258ZM10.3125 18.2798L8.73555 16.7054C8.60586 16.5797 8.43192 16.5101 8.25132 16.5116C8.07073 16.5131 7.89798 16.5856 7.77042 16.7135C7.64286 16.8413 7.57072 17.0142 7.56961 17.1948C7.56849 17.3754 7.63848 17.5492 7.76445 17.6786L10.5145 20.4239C10.6433 20.5525 10.818 20.6247 11 20.6247C11.182 20.6247 11.3567 20.5525 11.4855 20.4239L14.2355 17.6786C14.3615 17.5492 14.4315 17.3754 14.4304 17.1948C14.4293 17.0142 14.3571 16.8413 14.2296 16.7135C14.102 16.5856 13.9293 16.5131 13.7487 16.5116C13.5681 16.5101 13.3941 16.5797 13.2645 16.7054L11.6875 18.2798V15.125H10.3125V18.2798Z" fill="#007BFD"/>
</svg>
