<svg width="31" height="30" viewBox="0 0 31 30" fill="none" xmlns="http://www.w3.org/2000/svg">
<path d="M3.67085 29.9936C3.09866 29.792 2.53948 29.5709 2.07782 29.1483C1.25855 28.4135 0.822908 27.4967 0.816406 26.3849C0.816406 20.715 0.816406 15.0451 0.816406 9.37523C0.816406 7.32705 2.41594 5.70151 4.46412 5.69501C7.68919 5.682 10.9143 5.68851 14.1393 5.69501C14.8936 5.69501 15.4333 6.22818 15.4268 6.93042C15.4202 7.61965 14.8806 8.13332 14.1393 8.13332C10.9793 8.13332 7.82573 8.13332 4.66568 8.13332C3.72287 8.13332 3.25471 8.59497 3.25471 9.52478C3.25471 15.0906 3.25471 20.6565 3.25471 26.2223C3.25471 27.1456 3.71637 27.6138 4.63317 27.6138C10.2055 27.6138 15.7844 27.6138 21.3567 27.6138C22.267 27.6138 22.7352 27.1391 22.7352 26.2158C22.7352 23.0493 22.7352 19.8762 22.7352 16.7097C22.7352 15.8189 23.5284 15.2272 24.3477 15.5003C24.8614 15.6758 25.1735 16.131 25.1735 16.7422C25.18 17.8085 25.1735 18.8749 25.1735 19.9412C25.1735 21.9959 25.1735 24.0506 25.1735 26.1053C25.1735 28.1079 24.2372 29.3694 22.3255 29.9676C22.306 29.9741 22.293 29.9871 22.28 30.0001C16.077 29.9936 9.87391 29.9936 3.67085 29.9936Z" fill="white"/>
<path d="M30.0434 4.24296C29.8874 5.21828 29.3022 5.92702 28.6064 6.57073C28.2228 6.92185 27.8652 7.30547 27.5271 7.65009C26.0901 6.21311 24.6726 4.78914 23.2227 3.34566C23.2552 3.31315 23.3267 3.23512 23.4047 3.1571C23.8664 2.69544 24.328 2.22729 24.7962 1.76564C25.6675 0.907351 26.7143 0.601749 27.8847 0.959368C29.0551 1.31699 29.7573 2.14276 29.9979 3.34566C30.0044 3.37817 30.0304 3.41068 30.0434 3.44319C30.0434 3.70978 30.0434 3.97637 30.0434 4.24296Z" fill="white"/>
<path d="M21.8568 4.71875C23.2937 6.16223 24.7177 7.5797 26.1482 9.01017C26.0962 9.06219 26.0377 9.13371 25.9726 9.19874C22.8776 12.2938 19.7891 15.3888 16.6811 18.4773C16.5055 18.6529 16.2454 18.7894 15.9983 18.8414C14.6784 19.1275 13.352 19.3746 12.032 19.6412C11.4663 19.7517 11.1087 19.4136 11.2192 18.8544C11.4923 17.476 11.7719 16.0975 12.058 14.7191C12.0905 14.563 12.1751 14.394 12.2921 14.2769C15.4456 11.1104 18.6122 7.95032 21.7722 4.78377C21.8048 4.75776 21.8308 4.73826 21.8568 4.71875Z" fill="white"/>
</svg>
