<svg width="15" height="14" viewBox="0 0 15 14" fill="none" xmlns="http://www.w3.org/2000/svg">
<path d="M7.5095 0C9.48504 0 11.4541 0 13.4297 0C14.3335 0 15.0372 0.727095 14.9985 1.61364C14.9791 1.98995 14.8306 2.3216 14.5724 2.60224C12.9325 4.38171 11.2992 6.16755 9.65289 7.94065C9.49795 8.10647 9.43985 8.26593 9.43985 8.48278C9.45276 9.38208 9.43985 10.275 9.4463 11.1743C9.4463 11.4039 9.36883 11.5825 9.18806 11.7228C8.29713 12.4244 7.4062 13.126 6.51527 13.8339C6.35387 13.9615 6.17956 14.038 5.97297 13.9806C5.71472 13.9105 5.55978 13.7 5.55978 13.4194C5.55978 12.4499 5.55978 11.4741 5.55978 10.5046C5.55978 9.79665 5.55332 9.08869 5.55978 8.38073C5.55978 8.24041 5.52104 8.13836 5.4242 8.02994C3.75855 6.22496 2.09936 4.41997 0.440161 2.62137C-0.341017 1.77309 -0.0440406 0.471974 1.02766 0.0956704C1.22134 0.0318901 1.43439 0 1.64098 0C3.59715 0 5.55332 0 7.5095 0ZM6.66376 12.3096C7.22543 11.8631 7.74837 11.4486 8.26485 11.0276C8.31004 10.9893 8.32941 10.9001 8.32941 10.8299C8.33587 9.91146 8.33587 8.98664 8.32941 8.06821C8.32941 7.85135 8.39397 7.67277 8.54246 7.51332C10.2598 5.65093 11.9771 3.78217 13.6944 1.91341C13.8428 1.74758 13.9397 1.57537 13.8364 1.35852C13.7396 1.14805 13.5523 1.09702 13.3328 1.09702C9.43985 1.09702 5.54041 1.09702 1.64744 1.09702C1.42793 1.09702 1.24716 1.15442 1.15032 1.3649C1.05348 1.57537 1.13741 1.74758 1.2859 1.90703C3.00965 3.77579 4.72695 5.65093 6.44425 7.5197C6.59274 7.67915 6.66376 7.85773 6.66376 8.07458C6.6573 9.41397 6.66376 10.7534 6.66376 12.0864C6.66376 12.1501 6.66376 12.2075 6.66376 12.3096Z" fill="#007BFD"/>
</svg>
