<svg width="20" height="24" viewBox="0 0 20 24" fill="none" xmlns="http://www.w3.org/2000/svg">
<path d="M17.1996 4.2853L17.2019 2.24592e-05H2.64787C1.97123 -0.00279768 1.31942 0.260067 0.827389 0.734202C0.335357 1.20834 0.0407744 1.85744 0.00462107 2.54713L0.00231059 13.0162V14.2968H0V17.1411C0.000289035 17.8991 0.29542 18.626 0.820528 19.162C1.34564 19.698 2.05775 19.9992 2.80037 19.9995H3.93946C3.84532 19.6203 3.79797 19.2305 3.79852 18.8392C3.79852 17.5807 4.2883 16.3737 5.16012 15.4838C6.03194 14.594 7.21438 14.094 8.44732 14.094C9.68026 14.094 10.8627 14.594 11.7345 15.4838C12.6063 16.3737 13.0961 17.5807 13.0961 18.8392C13.0967 19.2305 13.0493 19.6203 12.9552 19.9995H17.1996C17.9422 19.9992 18.6544 19.698 19.1795 19.162C19.7046 18.626 19.9997 17.8991 20 17.1411V7.14372C20.0001 6.76833 19.9277 6.39661 19.7869 6.04978C19.6462 5.70296 19.44 5.38783 19.1799 5.12239C18.9199 4.85695 18.6111 4.6464 18.2713 4.50277C17.9316 4.35914 17.5674 4.28524 17.1996 4.2853V4.2853ZM2.85813 1.22405H16.0005V4.2853H2.85813C2.46043 4.2853 2.07902 4.12403 1.7978 3.83699C1.51658 3.54994 1.3586 3.16062 1.3586 2.75467C1.3586 2.34873 1.51658 1.95941 1.7978 1.67236C2.07902 1.38531 2.46043 1.22405 2.85813 1.22405V1.22405ZM16.5388 12.8181C16.3942 12.8183 16.2527 12.7748 16.1323 12.693C16.012 12.6111 15.918 12.4947 15.8625 12.3584C15.8069 12.2221 15.7922 12.072 15.8202 11.9272C15.8482 11.7824 15.9176 11.6492 16.0198 11.5447C16.1219 11.4401 16.2521 11.3688 16.3939 11.3398C16.5357 11.3108 16.6827 11.3253 16.8164 11.3816C16.9502 11.4379 17.0645 11.5334 17.1451 11.656C17.2256 11.7786 17.2687 11.9229 17.2689 12.0705C17.2689 12.2683 17.192 12.4581 17.0552 12.5982C16.9183 12.7384 16.7327 12.8174 16.5388 12.8181V12.8181Z" fill="#7A4DE8"/>
<path d="M13.1822 18.8397C13.1827 19.2312 13.1341 19.6212 13.0375 20.0008H3.78142C3.68477 19.6212 3.63616 19.2312 3.63672 18.8397C3.63672 17.5805 4.13956 16.3728 5.03462 15.4824C5.92968 14.592 7.14364 14.0918 8.40945 14.0918C9.67525 14.0918 10.8892 14.592 11.7843 15.4824C12.6793 16.3728 13.1822 17.5805 13.1822 18.8397V18.8397Z" fill="#DCB262"/>
<path d="M13.1822 20C12.9141 21.0392 12.2991 21.9612 11.4346 22.6199C10.57 23.2786 9.5054 23.6363 8.40945 23.6363C7.31349 23.6363 6.24888 23.2786 5.38434 22.6199C4.51979 21.9612 3.90476 21.0392 3.63672 20H13.1822Z" fill="#FFD317"/>
</svg>
