<svg width="21" height="21" viewBox="0 0 19 19" fill="none" xmlns="http://www.w3.org/2000/svg">
<g clip-path="url(#clip0_590_5929)">
<path d="M9.42945 4.06239C9.37711 4.01232 9.30747 3.98438 9.23504 3.98438C9.16261 3.98438 9.09297 4.01232 9.04063 4.06239L2.56836 10.2453C2.54087 10.2716 2.519 10.3032 2.50408 10.3382C2.48915 10.3732 2.48148 10.4108 2.48152 10.4489L2.48047 16.2518C2.48047 16.5501 2.599 16.8363 2.80997 17.0473C3.02095 17.2582 3.3071 17.3768 3.60547 17.3768H6.98398C7.13317 17.3768 7.27624 17.3175 7.38173 17.212C7.48722 17.1065 7.54648 16.9634 7.54648 16.8143V12.033C7.54648 11.9584 7.57612 11.8869 7.62886 11.8341C7.68161 11.7814 7.75314 11.7518 7.82773 11.7518H10.6402C10.7148 11.7518 10.7864 11.7814 10.8391 11.8341C10.8919 11.8869 10.9215 11.9584 10.9215 12.033V16.8143C10.9215 16.9634 10.9807 17.1065 11.0862 17.212C11.1917 17.3175 11.3348 17.3768 11.484 17.3768H14.8611C15.1595 17.3768 15.4456 17.2582 15.6566 17.0473C15.8676 16.8363 15.9861 16.5501 15.9861 16.2518V10.4489C15.9861 10.4108 15.9785 10.3732 15.9635 10.3382C15.9486 10.3032 15.9267 10.2716 15.8993 10.2453L9.42945 4.06239Z" fill="black"/>
<path d="M17.4929 9.0834L14.8633 6.56762V2.75C14.8633 2.60082 14.804 2.45774 14.6985 2.35225C14.593 2.24676 14.4499 2.1875 14.3008 2.1875H12.6133C12.4641 2.1875 12.321 2.24676 12.2155 2.35225C12.11 2.45774 12.0508 2.60082 12.0508 2.75V3.875L10.0145 1.92805C9.82396 1.73539 9.5406 1.625 9.23439 1.625C8.92923 1.625 8.64658 1.73539 8.45603 1.9284L0.978295 9.0827C0.759623 9.29363 0.732201 9.64062 0.931185 9.86914C0.981153 9.92682 1.04234 9.97373 1.11101 10.007C1.17968 10.0403 1.25441 10.0593 1.33064 10.0627C1.40688 10.0662 1.48303 10.0542 1.55445 10.0273C1.62587 10.0004 1.69108 9.95929 1.74611 9.90641L9.04103 2.93562C9.09337 2.88556 9.16301 2.85761 9.23544 2.85761C9.30788 2.85761 9.37752 2.88556 9.42986 2.93562L16.7255 9.90641C16.833 10.0095 16.9769 10.0657 17.1258 10.0628C17.2746 10.0599 17.4163 9.9981 17.5197 9.89094C17.7355 9.66734 17.7176 9.2982 17.4929 9.0834Z" fill="black"/>
</g>
<defs>
<clipPath id="clip0_590_5929">
<rect width="18" height="18" fill="white" transform="translate(0.234375 0.5)"/>
</clipPath>
</defs>
</svg>
