<svg width="20" height="20" viewBox="0 0 20 20" fill="none" xmlns="http://www.w3.org/2000/svg">
<path fill-rule="evenodd" clip-rule="evenodd" d="M8.94572 12.8834L6.51377 17.0955C6.48559 17.1441 6.44298 17.1828 6.39185 17.2061C6.34072 17.2294 6.2836 17.2362 6.22841 17.2256C6.17323 17.215 6.12271 17.1875 6.08386 17.1469C6.04501 17.1063 6.01976 17.0546 6.01161 16.999L5.72203 15.0275L3.87002 15.762C3.81737 15.7829 3.75947 15.7867 3.70451 15.773C3.64955 15.7592 3.60031 15.7285 3.56376 15.6852C3.52721 15.6419 3.50518 15.5882 3.50081 15.5317C3.49643 15.4752 3.50992 15.4188 3.53937 15.3704L5.95198 11.1902C5.97272 11.1542 6.00147 11.1234 6.03601 11.1003C6.07055 11.0772 6.10994 11.0624 6.15114 11.057C6.19233 11.0516 6.23422 11.0557 6.27355 11.0691C6.31288 11.0825 6.34859 11.1048 6.37793 11.1342C6.70584 11.4654 7.0786 11.749 7.48531 11.9766C7.8896 12.2033 8.32388 12.3717 8.77527 12.4768C8.81722 12.4865 8.85627 12.506 8.88918 12.5338C8.92209 12.5615 8.94791 12.5967 8.96452 12.6364C8.98113 12.6762 8.98804 12.7193 8.98468 12.7622C8.98132 12.8051 8.96778 12.8466 8.9452 12.8833L8.94572 12.8834ZM13.8527 11.2145L16.2729 15.4066C16.3008 15.4552 16.313 15.5113 16.3076 15.5671C16.3022 15.6229 16.2796 15.6757 16.2429 15.718C16.2062 15.7604 16.1573 15.7904 16.1028 15.8037C16.0483 15.817 15.9911 15.8131 15.939 15.7924L14.087 15.0579L13.7974 17.0294C13.7891 17.0863 13.7629 17.139 13.7226 17.18C13.6824 17.2211 13.6302 17.2482 13.5735 17.2576C13.5168 17.267 13.4586 17.2582 13.4072 17.2324C13.3559 17.2065 13.3141 17.1651 13.2879 17.1139L10.8426 12.8801C10.8214 12.8434 10.8091 12.8022 10.8067 12.7599C10.8043 12.7176 10.8118 12.6753 10.8287 12.6364C10.8456 12.5975 10.8714 12.5631 10.904 12.536C10.9367 12.5089 10.9752 12.4899 11.0165 12.4804C11.4686 12.3768 11.9037 12.2099 12.3091 11.9845C12.7163 11.758 13.0897 11.4754 13.4183 11.145C13.4486 11.1145 13.4856 11.0916 13.5265 11.0782C13.5674 11.0649 13.6108 11.0614 13.6533 11.0682C13.6957 11.075 13.7359 11.0917 13.7706 11.1171C13.8053 11.1425 13.8334 11.1758 13.8527 11.2142V11.2145Z" fill="#431C10"/>
<path fill-rule="evenodd" clip-rule="evenodd" d="M9.9038 2.5C10.9382 2.5 11.9493 2.80673 12.8094 3.38141C13.6695 3.95608 14.3398 4.77289 14.7357 5.72855C15.1315 6.6842 15.2351 7.73577 15.0333 8.75028C14.8315 9.7648 14.3334 10.6967 13.6019 11.4281C12.8705 12.1595 11.9386 12.6576 10.9241 12.8594C9.9096 13.0612 8.85803 12.9577 7.90237 12.5618C6.94672 12.166 6.12991 11.4956 5.55524 10.6356C4.98056 9.77552 4.67383 8.76436 4.67383 7.72997C4.67381 7.04315 4.80908 6.36306 5.0719 5.72853C5.33472 5.09399 5.71996 4.51743 6.20561 4.03178C6.69126 3.54613 7.26782 3.1609 7.90235 2.89807C8.53689 2.63525 9.21698 2.49998 9.9038 2.5Z" fill="#FCB912"/>
<path fill-rule="evenodd" clip-rule="evenodd" d="M9.9038 2.5C9.84246 2.5 9.78165 2.5025 9.7207 2.50461C11.0754 2.55123 12.3591 3.12217 13.3009 4.09701C14.2428 5.07185 14.7693 6.37438 14.7693 7.7299C14.7693 9.08542 14.2428 10.388 13.3009 11.3628C12.3591 12.3376 11.0754 12.9086 9.7207 12.9552C9.78165 12.9573 9.84233 12.9598 9.9038 12.9598C11.2863 12.9529 12.6098 12.3988 13.585 11.4188C14.5601 10.4387 15.1075 9.11243 15.1075 7.7299C15.1075 6.34738 14.5601 5.02109 13.585 4.04104C12.6098 3.061 11.2863 2.50694 9.9038 2.5Z" fill="#F2A31E"/>
<path d="M12.7985 5.07618C12.1842 4.46185 11.3759 4.07952 10.5113 3.99435C9.64674 3.90917 8.77937 4.12642 8.05701 4.60906C7.33465 5.09171 6.80199 5.8099 6.54979 6.64125C6.29759 7.47261 6.34146 8.36569 6.67392 9.16833C7.00638 9.97097 7.60686 10.6335 8.37304 11.043C9.13923 11.4526 10.0237 11.5838 10.8758 11.4143C11.7279 11.2448 12.4948 10.7851 13.0459 10.1135C13.597 9.44191 13.8983 8.60001 13.8982 7.73125C13.8989 7.23806 13.802 6.74961 13.6133 6.29397C13.4246 5.83833 13.1477 5.42447 12.7985 5.07618ZM10.1434 3.4336C11.1377 3.43358 12.1013 3.77834 12.8699 4.40912C13.6386 5.0399 14.1647 5.91768 14.3587 6.89289C14.5527 7.8681 14.4025 8.88041 13.9338 9.75732C13.4651 10.6342 12.7068 11.3215 11.7882 11.702C10.8696 12.0825 9.84741 12.1327 8.89591 11.8441C7.9444 11.5555 7.12242 10.9458 6.57001 10.1191C6.0176 9.29233 5.76894 8.29962 5.86641 7.31009C5.96388 6.32056 6.40144 5.39544 7.10453 4.69235C7.50317 4.29269 7.97686 3.97574 8.49837 3.75972C9.01988 3.5437 9.57894 3.43287 10.1434 3.4336Z" fill="#F2A31E"/>
<path d="M10.4708 5.55521L10.8725 6.79962L12.1834 6.79712C12.2555 6.7974 12.3257 6.82043 12.3839 6.86295C12.4421 6.90546 12.4854 6.96527 12.5077 7.03385C12.5299 7.10244 12.5299 7.17629 12.5077 7.24487C12.4854 7.31346 12.4421 7.37327 12.3839 7.41577V7.41643L11.3223 8.18461L11.7297 9.43021C11.7529 9.50114 11.7523 9.57771 11.7279 9.64825C11.7035 9.7188 11.6568 9.77945 11.5948 9.82096C11.5328 9.86248 11.4589 9.88259 11.3844 9.87823C11.3099 9.87386 11.2389 9.84526 11.1821 9.79679L10.1444 9.03914L9.08528 9.8118C9.02695 9.85429 8.95666 9.87722 8.88449 9.87728C8.81232 9.87734 8.74199 9.85453 8.68359 9.81213C8.6252 9.76973 8.58173 9.70991 8.55945 9.64127C8.53716 9.57263 8.5372 9.49869 8.55956 9.43007H8.55863L8.96668 8.18448L7.90444 7.41617C7.84405 7.37252 7.79956 7.31034 7.77772 7.2391C7.75588 7.16786 7.7579 7.09143 7.78345 7.02143C7.80901 6.95144 7.85671 6.89169 7.91932 6.85128C7.98192 6.81087 8.05601 6.79199 8.13032 6.79752L9.41632 6.80002L9.81871 5.55324C9.84105 5.48422 9.88475 5.42408 9.9435 5.38151C10.0022 5.33894 10.073 5.31614 10.1455 5.31641C10.2181 5.31667 10.2887 5.33998 10.3471 5.38298C10.4056 5.42597 10.4488 5.48642 10.4707 5.55561" fill="#F2A31E"/>
<path d="M12.5594 5.07618C11.9451 4.46185 11.1368 4.07952 10.2722 3.99435C9.40761 3.90917 8.54025 4.12642 7.81789 4.60906C7.09552 5.09171 6.56286 5.8099 6.31066 6.64125C6.05846 7.47261 6.10233 8.36569 6.43479 9.16833C6.76725 9.97097 7.36773 10.6335 8.13391 11.043C8.9001 11.4526 9.78458 11.5838 10.6367 11.4143C11.4887 11.2448 12.2557 10.7851 12.8068 10.1135C13.3579 9.44191 13.6591 8.60001 13.6591 7.73125C13.6597 7.23806 13.5629 6.74962 13.3742 6.29397C13.1854 5.83833 12.9085 5.42447 12.5594 5.07618ZM9.90417 3.4336C10.8985 3.43358 11.8621 3.77834 12.6307 4.40912C13.3993 5.0399 13.9254 5.91768 14.1194 6.89289C14.3134 7.8681 14.1633 8.88041 13.6945 9.75732C13.2258 10.6342 12.4676 11.3215 11.5489 11.702C10.6303 12.0825 9.60815 12.1327 8.65665 11.8441C7.70514 11.5555 6.88316 10.9458 6.33075 10.1191C5.77834 9.29233 5.52968 8.29962 5.62715 7.31009C5.72462 6.32056 6.16218 5.39544 6.86528 4.69235C7.26391 4.29269 7.7376 3.97574 8.25911 3.75972C8.78063 3.5437 9.33969 3.43287 9.90417 3.4336Z" fill="#FCF8CF"/>
<path d="M10.2315 5.55521L10.6333 6.79962L11.9441 6.79712C12.0162 6.7974 12.0864 6.82043 12.1446 6.86295C12.2029 6.90546 12.2462 6.96527 12.2684 7.03385C12.2906 7.10244 12.2906 7.17629 12.2684 7.24487C12.2462 7.31346 12.2028 7.37327 12.1446 7.41577V7.41643L11.083 8.18461L11.4911 9.43021C11.5143 9.50114 11.5137 9.57771 11.4893 9.64825C11.4649 9.7188 11.4182 9.77945 11.3562 9.82096C11.2942 9.86248 11.2203 9.88259 11.1458 9.87823C11.0713 9.87386 11.0003 9.84526 10.9435 9.79679L9.9047 9.03914L8.84549 9.8118C8.78717 9.85429 8.71687 9.87722 8.64471 9.87728C8.57254 9.87734 8.50221 9.85453 8.44381 9.81213C8.38541 9.76973 8.34195 9.70991 8.31967 9.64127C8.29738 9.57263 8.29742 9.49869 8.31977 9.43007H8.31885L8.7269 8.18448L7.66519 7.41617C7.60479 7.37252 7.5603 7.31034 7.53846 7.2391C7.51663 7.16786 7.51864 7.09143 7.54419 7.02143C7.56975 6.95144 7.61745 6.89169 7.68006 6.85128C7.74266 6.81087 7.81675 6.79199 7.89106 6.79752L9.17706 6.80002L9.57945 5.55324C9.60179 5.48422 9.64549 5.42408 9.70424 5.38151C9.76299 5.33894 9.83374 5.31614 9.90629 5.31641C9.97884 5.31667 10.0494 5.33998 10.1079 5.38298C10.1663 5.42597 10.2096 5.48642 10.2314 5.55561" fill="#FCF8CF"/>
</svg>
