<svg width="26" height="26" viewBox="0 0 26 26" fill="none" xmlns="http://www.w3.org/2000/svg">
<path d="M11.475 0C11.9771 0.204578 12.1445 0.595136 12.1445 1.12518C12.1352 4.43562 12.1352 7.75536 12.1352 11.0658C12.1352 11.8097 11.819 12.1259 11.0658 12.1259C7.73677 12.1259 4.39843 12.1259 1.06938 12.1259C0.316166 12.1259 0.009299 11.8097 0.009299 11.0658C0.009299 7.75536 0.018598 4.43562 0 1.12518C0 0.585837 0.158083 0.204578 0.669528 0C4.26824 0 7.87625 0 11.475 0ZM10.387 10.387C10.387 7.49499 10.387 4.6123 10.387 1.74821C7.49499 1.74821 4.6216 1.74821 1.75751 1.74821C1.75751 4.6402 1.75751 7.50429 1.75751 10.387C4.6309 10.387 7.49499 10.387 10.387 10.387Z" fill="black"/>
<path d="M25.9907 11.4735C25.7861 11.9756 25.4048 12.143 24.8655 12.143C21.555 12.1337 18.2353 12.1337 14.9249 12.1337C14.1809 12.1337 13.8648 11.8175 13.8648 11.0736C13.8648 7.76318 13.8741 4.44343 13.8555 1.13299C13.8555 0.602948 14.0136 0.221689 14.525 0.0078125C18.133 0.0078125 21.7317 0.0078125 25.3397 0.0078125C25.6559 0.137998 25.8698 0.351875 26 0.668041C25.9907 4.25745 25.9907 7.86547 25.9907 11.4735ZM24.2425 10.3855C24.2425 7.49351 24.2425 4.62012 24.2425 1.74673C21.3505 1.74673 18.4864 1.74673 15.613 1.74673C15.613 4.63871 15.613 7.50281 15.613 10.3855C18.4957 10.3855 21.3598 10.3855 24.2425 10.3855Z" fill="black"/>
<path d="M25.9911 25.3304C25.7866 25.8326 25.4053 26 24.8659 26C21.5555 25.9814 18.2358 25.9907 14.9253 25.9907C14.1814 25.9907 13.8652 25.6745 13.8652 24.9306C13.8652 21.6015 13.8652 18.2632 13.8652 14.9342C13.8652 14.1809 14.1814 13.8648 14.9253 13.8648C18.2358 13.8648 21.5555 13.8741 24.8659 13.8555C25.396 13.8555 25.7773 14.0136 25.9911 14.525C25.9911 18.1237 25.9911 21.7224 25.9911 25.3304ZM15.6134 15.6037C15.6134 18.4957 15.6134 21.3691 15.6134 24.2425C18.5054 24.2425 21.3695 24.2425 24.2429 24.2425C24.2429 21.3505 24.2429 18.4864 24.2429 15.6037C21.3602 15.6037 18.4961 15.6037 15.6134 15.6037Z" fill="black"/>
<path d="M0.00976562 19.9184C0.00976562 18.2353 0.00976562 16.5522 0.00976562 14.8691C0.00976562 14.1902 0.34453 13.8555 1.02336 13.8555C4.38959 13.8555 7.75583 13.8555 11.1221 13.8555C11.8102 13.8555 12.145 14.1902 12.145 14.8877C12.145 18.2446 12.145 21.6015 12.145 24.9585C12.145 25.6559 11.8195 25.9814 11.1221 25.9814C7.76513 25.9814 4.40819 25.9814 1.05125 25.9814C0.34453 25.9814 0.0190646 25.6559 0.0190646 24.9399C0.00976562 23.2661 0.00976562 21.5922 0.00976562 19.9184ZM10.3874 24.2517C10.3874 21.3598 10.3874 18.4864 10.3874 15.613C7.49546 15.613 4.62207 15.613 1.74868 15.613C1.74868 18.505 1.74868 21.3691 1.74868 24.2517C4.64067 24.2517 7.50476 24.2517 10.3874 24.2517Z" fill="black"/>
</svg>
