<svg width="21" height="20" viewBox="0 0 19 18" fill="none" xmlns="http://www.w3.org/2000/svg">
<path d="M12.4602 2.27039C11.7761 1.53176 10.8205 1.125 9.76583 1.125C8.70551 1.125 7.7468 1.5293 7.06583 2.26336C6.37747 3.00551 6.04208 4.01414 6.12083 5.10328C6.27692 7.25203 7.91204 9 9.76583 9C11.6196 9 13.2519 7.25238 13.4105 5.10398C13.4903 4.02469 13.1528 3.01816 12.4602 2.27039ZM15.9533 16.875H3.57833C3.41635 16.8771 3.25594 16.8431 3.10877 16.7754C2.96159 16.7077 2.83136 16.6081 2.72754 16.4837C2.49903 16.2105 2.40692 15.8375 2.47512 15.4603C2.77184 13.8143 3.69786 12.4316 5.15333 11.4609C6.44637 10.5993 8.0843 10.125 9.76583 10.125C11.4473 10.125 13.0853 10.5996 14.3783 11.4609C15.8338 12.4312 16.7598 13.8139 17.0565 15.46C17.1247 15.8372 17.0326 16.2102 16.8041 16.4834C16.7003 16.6078 16.5701 16.7075 16.4229 16.7752C16.2758 16.843 16.1153 16.8771 15.9533 16.875Z" fill="#456277"/>
</svg>
