<svg width="34" height="34" viewBox="0 0 34 34" fill="none" xmlns="http://www.w3.org/2000/svg">
<path d="M33.7659 18.4891C33.6498 18.3513 33.4959 18.2441 33.3162 18.1844L25.5 15.5898L17 18.4114V31.2329L25.1839 33.9495C25.2865 33.9836 25.3933 34.0006 25.5 34.0006C25.6067 34.0006 25.7135 33.9836 25.8161 33.9495L33.3161 31.4599C33.7245 31.3244 34 30.9437 34 30.5149V19.1294C34 18.8894 33.9135 18.6644 33.7659 18.4891Z" fill="#8BB9FF"/>
<path d="M25.5 21.2321V33.9998C25.6068 33.9998 25.7135 33.9828 25.8161 33.9487L33.3161 31.4591C33.7245 31.3235 34 30.9428 34 30.514V19.1286C34 18.8885 33.9135 18.6636 33.7659 18.4883L25.5 21.2321Z" fill="#005EDF"/>
<path d="M17 18.4102V31.2316L25.1839 33.9483C25.2865 33.9823 25.3933 33.9993 25.5 33.9993V21.2317L17 18.4102Z" fill="#4793FF"/>
<path d="M25.2659 2.84547C25.1499 2.70761 24.9959 2.60043 24.8162 2.54073L17.3162 0.0510995C17.111 -0.0170332 16.8891 -0.0170332 16.6839 0.0510995L9.18387 2.54073C9.00413 2.60036 8.8502 2.70761 8.73413 2.84547C8.58647 3.02078 8.5 3.2457 8.5 3.48576V15.5892L17 18.4108L25.5 15.5892V3.48576C25.5001 3.2457 25.4136 3.02078 25.2659 2.84547Z" fill="#FFDD54"/>
<path d="M25.5 3.48599C25.5 3.24593 25.4135 3.02102 25.2659 2.8457L17 5.58954V18.411L25.5 15.5894V3.48599Z" fill="#FF8E00"/>
<path d="M17 5.58954L8.73413 2.8457C8.58647 3.02102 8.5 3.24593 8.5 3.48599V15.5894L17 18.411V5.58954Z" fill="#FFB454"/>
<path d="M25.2659 2.84544C25.1498 2.70758 24.9959 2.6004 24.8161 2.5407L17.3161 0.0510663C17.2135 0.017 17.1068 0 17 0V5.58927L25.2659 2.84544Z" fill="#FFB454"/>
<path d="M8.5 15.5879L0.6838 18.1825C0.504067 18.2421 0.3502 18.3494 0.234133 18.4872C0.0864667 18.6625 0 18.8874 0 19.1275V30.5129C0 30.9417 0.275467 31.3224 0.683867 31.458L8.18387 33.9476C8.28647 33.9817 8.39327 33.9987 8.5 33.9987C8.6068 33.9987 8.71353 33.9817 8.81613 33.9476L17 31.2309V18.4095L8.5 15.5879Z" fill="#FF6B6B"/>
<path d="M0.234133 18.4863C0.0864667 18.6616 0 18.8866 0 19.1266V30.5121C0 30.9409 0.275467 31.3215 0.683867 31.4571L8.18387 33.9467C8.28647 33.9808 8.39327 33.9978 8.5 33.9978V21.2302L0.234133 18.4863Z" fill="#F90024"/>
<path d="M8.5 21.2317V33.9993C8.6068 33.9993 8.71353 33.9823 8.81613 33.9483L17 31.2316V18.4102L8.5 21.2317Z" fill="#A50017"/>
</svg>
