<svg width="34" height="34" viewBox="0 0 34 34" fill="none" xmlns="http://www.w3.org/2000/svg">
<path d="M29.6914 10.3142C29.6557 10.433 29.6086 10.548 29.5508 10.6576L30.9401 12.061L30.9108 12.0906H21.848L21.8187 12.061L23.208 10.6576C23.1502 10.548 23.103 10.433 23.0673 10.3142H21.1035V7.94568H23.0673C23.103 7.82686 23.1502 7.71184 23.208 7.60225L21.8187 6.1989L23.4777 4.52318L24.867 5.92652C24.9755 5.86811 25.0893 5.82051 25.207 5.78441V3.80078H27.5518V5.78441C27.6694 5.82051 27.7833 5.86811 27.8918 5.92652L29.2811 4.52318L30.9401 6.1989L29.5508 7.60225C29.6086 7.71184 29.6557 7.82686 29.6914 7.94568H31.6552V10.3142H29.6914Z" fill="#ED1C24"/>
<path d="M26.3797 10.9082C27.351 10.9082 28.1383 10.1129 28.1383 9.13186C28.1383 8.15078 27.351 7.35547 26.3797 7.35547C25.4085 7.35547 24.6211 8.15078 24.6211 9.13186C24.6211 10.1129 25.4085 10.9082 26.3797 10.9082Z" fill="#E6E7E8"/>
<path d="M11.7246 11.5H21.6901V27.4875H11.7246V11.5Z" fill="#C49A6C"/>
<path d="M21.6895 11.5H31.655V27.4875H21.6895V11.5Z" fill="#A97C50"/>
<path d="M21.6895 26.3025V28.0789L31.655 27.4868V16.2363C31.655 18.906 30.605 21.4664 28.7361 23.3542C26.8672 25.242 24.3325 26.3025 21.6895 26.3025Z" fill="#8B5E3C"/>
<path d="M33.5775 24.7633C33.4625 24.5614 33.3092 24.3845 33.1264 24.2425C32.9437 24.1005 32.735 23.9963 32.5123 23.9358C32.2897 23.8753 32.0574 23.8598 31.8288 23.89C31.6002 23.9202 31.3797 23.9956 31.1799 24.1119L24.9251 27.7594H24.9222C24.8388 27.4666 24.682 27.2004 24.467 26.9867C24.2519 26.773 23.9859 26.619 23.6947 26.5397L14.9485 24.1711C14.3715 24.0151 13.7646 24.01 13.1851 24.1563L9.37891 25.1186V32.2241L10.981 33.0335C11.4694 33.2799 12.0079 33.4083 12.5538 33.4084H21.3334C21.9507 33.4092 22.5572 33.2459 23.092 32.9347L32.9403 27.191C33.3435 26.9543 33.637 26.5657 33.7565 26.1104C33.876 25.6551 33.8116 25.1706 33.5775 24.7633Z" fill="#FFBCAB"/>
<path d="M24.9225 27.7596C24.912 27.7246 24.9043 27.6885 24.892 27.6542C24.8797 27.6909 24.8662 27.727 24.8516 27.7619C24.6881 28.1566 24.3888 28.4782 24.0088 28.6671C23.6288 28.8561 23.1939 28.8997 22.7846 28.7899L19.6677 27.9467L16.6423 27.1248C16.5685 27.1049 16.4914 27.1003 16.4158 27.1113C16.3402 27.1222 16.2675 27.1485 16.2022 27.1886C16.1369 27.2286 16.0802 27.2816 16.0357 27.3443C15.9911 27.407 15.9596 27.4782 15.943 27.5535C15.9116 27.6974 15.9363 27.8479 16.0119 27.9739C16.0876 28.0998 16.2084 28.1914 16.3492 28.2297L22.6885 29.9469C23.0919 30.065 23.5232 30.0397 23.9104 29.8752C24.2976 29.7108 24.6172 29.4171 24.8158 29.0433C25.0121 28.6448 25.0503 28.1856 24.9225 27.7596Z" fill="#FF9478"/>
<path d="M17.0006 0V4.3936L15.242 5.57786L13.4833 4.3936V0C12.7442 0.302124 12.0934 0.789648 11.5927 1.4165C11.0919 2.04335 10.7577 2.78882 10.6216 3.58247C10.4854 4.37611 10.5519 5.19171 10.8147 5.95218C11.0775 6.71266 11.5279 7.3929 12.1233 7.92861C12.3681 8.1485 12.5638 8.41854 12.6972 8.72075C12.8306 9.02296 12.8988 9.35041 12.8971 9.68131V11.4991H17.5868V9.68131C17.5852 9.35041 17.6533 9.02296 17.7868 8.72075C17.9202 8.41854 18.1158 8.1485 18.3606 7.92861C18.9561 7.3929 19.4065 6.71266 19.6692 5.95218C19.932 5.19171 19.9985 4.37611 19.8623 3.58247C19.7262 2.78882 19.392 2.04335 18.8912 1.4165C18.3905 0.789648 17.7398 0.302124 17.0006 0Z" fill="#FF9811"/>
<path d="M4.68945 23.3418V24.5261V32.8159V34.0001H9.37911V32.2237V25.1182V23.3418H4.68945Z" fill="#006DF0"/>
<path d="M0 24.5273H4.68966V32.8172H0V24.5273Z" fill="#005ECE"/>
<path d="M15.241 11.5H12.8961H11.7237L9.37891 16.237H11.7237H19.3444L21.6893 11.5H17.5858H15.241Z" fill="#A97C50"/>
<path d="M30.9105 11.5H21.8477H21.6895L24.0343 16.237H31.655H33.9998L31.655 11.5H30.9105Z" fill="#8B5E3C"/>
<path d="M3.51758 24.5273H4.68999V32.8172H3.51758V24.5273Z" fill="#004FAC"/>
</svg>
