<svg width="23" height="23" viewBox="0 0 23 23" fill="none" xmlns="http://www.w3.org/2000/svg">
<path d="M23 6.57143V4.10714C23 3.45357 22.7404 2.82677 22.2782 2.36463C21.8161 1.90249 21.1893 1.64286 20.5357 1.64286H17.25V0.821429C17.25 0.603572 17.1635 0.394639 17.0094 0.240591C16.8554 0.0865431 16.6464 0 16.4286 0C16.2107 0 16.0018 0.0865431 15.8477 0.240591C15.6937 0.394639 15.6071 0.603572 15.6071 0.821429V1.64286H7.39286V0.821429C7.39286 0.603572 7.30631 0.394639 7.15227 0.240591C6.99822 0.0865431 6.78929 0 6.57143 0C6.35357 0 6.14464 0.0865431 5.99059 0.240591C5.83654 0.394639 5.75 0.603572 5.75 0.821429V1.64286H2.46429C1.81072 1.64286 1.18392 1.90249 0.721773 2.36463C0.259629 2.82677 0 3.45357 0 4.10714V6.57143H23Z" fill="#456277"/>
<path d="M0 8.21484V20.5363C0 21.1898 0.259629 21.8166 0.721773 22.2788C1.18392 22.7409 1.81072 23.0006 2.46429 23.0006H20.5357C21.1893 23.0006 21.8161 22.7409 22.2782 22.2788C22.7404 21.8166 23 21.1898 23 20.5363V8.21484H0ZM16.1411 12.9455L10.3911 17.874C10.2339 18.0084 10.0318 18.0786 9.82521 18.0705C9.61858 18.0624 9.4226 17.9767 9.27639 17.8305L6.81211 15.3662C6.66248 15.2113 6.57968 15.0038 6.58155 14.7884C6.58343 14.573 6.66981 14.367 6.82211 14.2147C6.97441 14.0624 7.18044 13.976 7.39581 13.9741C7.61119 13.9723 7.81868 14.0551 7.97361 14.2047L9.90068 16.1318L15.0757 11.6961C15.1571 11.6226 15.2524 11.5663 15.356 11.5303C15.4596 11.4943 15.5693 11.4794 15.6787 11.4865C15.7882 11.4936 15.895 11.5225 15.9931 11.5716C16.0912 11.6206 16.1784 11.6888 16.2497 11.7721C16.321 11.8554 16.3749 11.9521 16.4082 12.0566C16.4415 12.1611 16.4536 12.2711 16.4437 12.3803C16.4338 12.4895 16.4022 12.5957 16.3506 12.6924C16.2991 12.7892 16.2286 12.8747 16.1435 12.9438L16.1411 12.9455Z" fill="#456277"/>
</svg>
