<svg width="19" height="19" viewBox="0 0 19 19" fill="none" xmlns="http://www.w3.org/2000/svg">
<path d="M1.9391 16.8337C6.90415 16.8337 11.8357 16.8337 16.796 16.8337C16.796 16.7524 16.796 16.6757 16.796 16.5991C16.796 14.2148 16.796 11.8256 16.796 9.44122C16.796 8.8954 17.1646 8.47886 17.6674 8.42619C18.2371 8.37352 18.7255 8.80922 18.7303 9.39335C18.7351 10.1498 18.7303 10.9015 18.7303 11.658C18.7303 13.4487 18.7303 15.2442 18.7303 17.0348C18.7303 18.1025 18.0552 18.7776 16.9923 18.7776C11.9075 18.7776 6.81797 18.7776 1.73322 18.7776C0.675094 18.7776 0 18.1025 0 17.0348C0 14.502 0 11.9644 0 9.43165C0 8.7374 0.622427 8.26819 1.25922 8.46928C1.67098 8.59855 1.93431 8.97201 1.93431 9.44122C1.93431 10.9063 1.93431 12.3666 1.93431 13.8317C1.93431 14.7558 1.93431 15.6799 1.93431 16.6039C1.9391 16.671 1.9391 16.7428 1.9391 16.8337Z" fill="white"/>
<path d="M8.39766 3.31862C7.71778 4.00329 7.08099 4.64486 6.4442 5.28166C6.09947 5.6216 5.67335 5.70299 5.28553 5.51147C4.73013 5.23856 4.57213 4.51559 4.95995 4.03201C5.00783 3.97456 5.0605 3.92189 5.11316 3.86922C6.26705 2.71055 7.42572 1.55188 8.5796 0.393208C9.10149 -0.128673 9.63773 -0.133461 10.1596 0.393208C11.3183 1.55667 12.477 2.72013 13.6452 3.8788C13.9421 4.17565 14.0713 4.51559 13.9516 4.92256C13.741 5.62638 12.8791 5.83705 12.3429 5.31517C11.7253 4.7119 11.122 4.09904 10.5139 3.48619C10.4708 3.4431 10.4182 3.40001 10.3416 3.32819C10.3416 3.43831 10.3416 3.51013 10.3416 3.58195C10.3416 7.0053 10.3416 10.4286 10.3416 13.852C10.3416 14.4601 9.91064 14.9005 9.34567 14.8862C8.85252 14.8718 8.43597 14.4744 8.40724 13.9765C8.40245 13.8951 8.40724 13.8137 8.40724 13.7323C8.40724 10.3473 8.40724 6.967 8.40724 3.58195C8.39766 3.51971 8.39766 3.44789 8.39766 3.31862Z" fill="white"/>
</svg>
