<svg width="12" height="16" viewBox="0 0 12 16" fill="none" xmlns="http://www.w3.org/2000/svg">
<path d="M9.05666 12.877C9.11903 12.8181 9.15368 12.7903 9.18486 12.7557C9.50709 12.4335 9.83279 12.1078 10.155 11.7855C10.4287 11.5153 10.8064 11.5014 11.0628 11.7509C11.3192 12.0038 11.3088 12.3919 11.0316 12.6656C10.3213 13.3759 9.61104 14.0897 8.90074 14.7965C8.62355 15.0737 8.25281 15.0737 7.97562 14.7965C7.2584 14.0827 6.54463 13.369 5.83434 12.6552C5.56754 12.385 5.56061 11.9969 5.81355 11.7474C6.06302 11.5014 6.44415 11.5083 6.71095 11.7682C7.04011 12.0939 7.36581 12.4196 7.6915 12.7488C7.72269 12.78 7.75734 12.8111 7.82317 12.8735C7.82317 12.7834 7.82317 12.7349 7.82317 12.6864C7.82317 9.48833 7.82317 6.29373 7.82317 3.09566C7.82317 2.27796 7.8197 1.45678 7.82317 0.639076C7.82663 0.178249 8.25628 -0.119729 8.67206 0.0465845C8.91114 0.140136 9.05666 0.358422 9.06012 0.628681C9.06359 1.00982 9.06012 1.39095 9.06012 1.77209C9.06012 5.38247 9.06012 8.99286 9.06012 12.6067C9.05666 12.6864 9.05666 12.7626 9.05666 12.877Z" fill="#007BFD"/>
<path d="M2.15164 2.16027C1.78783 2.52408 1.42748 2.89136 1.06367 3.2517C0.880034 3.43187 0.658283 3.48385 0.415742 3.40069C0.180132 3.31753 0.0415372 3.14429 0.00688855 2.89828C-0.0242952 2.68693 0.0519317 2.50676 0.204386 2.3543C0.918147 1.64054 1.63191 0.926778 2.34914 0.213017C2.62979 -0.0641721 2.9936 -0.0711019 3.27425 0.209552C3.81477 0.746606 4.35183 1.28712 4.89234 1.82418C5.06905 2.00089 5.24576 2.17413 5.419 2.35084C5.6858 2.62456 5.69273 3.0057 5.43979 3.25863C5.18686 3.51156 4.80572 3.49771 4.53546 3.22745C4.20284 2.89828 3.87367 2.56566 3.54451 2.2365C3.52026 2.21224 3.49254 2.18799 3.43364 2.13255C3.43364 2.30579 3.43364 2.44439 3.43364 2.58298C3.43364 5.70482 3.43364 8.8232 3.43364 11.945C3.43364 12.742 3.4371 13.5354 3.43364 14.3323C3.43364 14.6823 3.24307 14.9317 2.93816 14.9907C2.55356 15.0669 2.20015 14.7966 2.19322 14.4016C2.18629 13.8958 2.18975 13.3934 2.18975 12.8875C2.18975 9.37065 2.18975 5.85381 2.18975 2.34044C2.18975 2.285 2.18975 2.22957 2.18975 2.17413C2.17589 2.17066 2.16203 2.16373 2.15164 2.16027Z" fill="#007BFD"/>
</svg>
