<svg width="17" height="17" viewBox="0 0 17 17" fill="none" xmlns="http://www.w3.org/2000/svg">
<path d="M15.5834 0H9.69525C9.30574 0 8.76133 0.225657 8.48611 0.500663L0.413411 8.57332C-0.137804 9.12392 -0.137804 10.0266 0.413411 10.5766L6.42419 16.5871C6.97416 17.1377 7.876 17.1377 8.4268 16.5865L16.4995 8.51509C16.7745 8.24013 17.0002 7.69485 17.0002 7.30616V1.41674C17.0002 0.63771 16.3624 0 15.5834 0ZM12.7499 5.66675C11.9675 5.66675 11.3332 5.03178 11.3332 4.25001C11.3332 3.46696 11.9675 2.83327 12.7499 2.83327C13.5323 2.83327 14.1669 3.46696 14.1669 4.25001C14.1669 5.03178 13.5323 5.66675 12.7499 5.66675Z" fill="#A1A1A1"/>
</svg>
