<svg width="16" height="20" viewBox="0 0 14 18" fill="none" xmlns="http://www.w3.org/2000/svg">
<path d="M11.5664 0.09375H3.25391C2.62423 0.0944376 2.02054 0.344881 1.57529 0.790131C1.13004 1.23538 0.879594 1.83907 0.878906 2.46875V15.5312C0.879594 16.1609 1.13004 16.7646 1.57529 17.2099C2.02054 17.6551 2.62423 17.9056 3.25391 17.9062H11.5664C12.1961 17.9056 12.7998 17.6551 13.245 17.2099C13.6903 16.7646 13.9407 16.1609 13.9414 15.5312V2.46875C13.9407 1.83907 13.6903 1.23538 13.245 0.790131C12.7998 0.344881 12.1961 0.0944376 11.5664 0.09375ZM10.2854 10.058C10.5663 10.3612 10.7036 10.769 10.671 11.2062C10.6068 12.0767 9.94287 12.7852 9.19141 12.7852C8.43994 12.7852 7.77494 12.0767 7.71148 11.2062C7.67957 10.7646 7.81576 10.356 8.09519 10.0558C8.37463 9.75555 8.76094 9.59375 9.19141 9.59375C9.39601 9.59081 9.59898 9.63057 9.78735 9.71051C9.97572 9.79044 10.1453 9.90879 10.2854 10.058ZM5.03516 2.46875C5.03516 2.31128 5.09771 2.16026 5.20906 2.04891C5.32041 1.93756 5.47143 1.875 5.62891 1.875H9.19141C9.34888 1.875 9.4999 1.93756 9.61125 2.04891C9.7226 2.16026 9.78516 2.31128 9.78516 2.46875C9.78516 2.62622 9.7226 2.77724 9.61125 2.88859C9.4999 2.99994 9.34888 3.0625 9.19141 3.0625H5.62891C5.47143 3.0625 5.32041 2.99994 5.20906 2.88859C5.09771 2.77724 5.03516 2.62622 5.03516 2.46875ZM12.0488 15.9703C12.0061 16.0197 11.953 16.0593 11.8933 16.086C11.8336 16.1127 11.7687 16.126 11.7033 16.125H6.67947C6.61407 16.126 6.54924 16.1127 6.48955 16.086C6.42985 16.0593 6.37675 16.0197 6.33398 15.9703C6.28762 15.9147 6.25434 15.8495 6.23661 15.7793C6.21888 15.7092 6.21715 15.6359 6.23156 15.565C6.35217 14.9134 6.72809 14.366 7.31887 13.9819C7.84359 13.6409 8.50859 13.4531 9.19141 13.4531C9.87422 13.4531 10.5392 13.6409 11.0639 13.9819C11.6547 14.366 12.0306 14.9134 12.1513 15.565C12.1657 15.6359 12.1639 15.7092 12.1462 15.7793C12.1285 15.8495 12.0952 15.9147 12.0488 15.9703Z" fill="#456277"/>
</svg>
