<svg width="53" height="53" viewBox="0 0 53 53" fill="none" xmlns="http://www.w3.org/2000/svg">
<circle cx="26.5" cy="26.5" r="26.5" fill="#72C8A2"/>
<path d="M35.7454 16.4033L35.4912 12.8895C35.4728 12.6363 35.7277 12.4412 35.9923 12.5057L38.4523 13.1053C38.7219 13.1711 38.8382 13.4657 38.6782 13.6774L36.4724 16.5916C36.2556 16.8781 35.7707 16.7525 35.7454 16.4033Z" fill="white"/>
<path d="M38.6784 13.6771L36.4728 16.5915C36.2563 16.8781 35.7713 16.7525 35.746 16.403L35.6816 15.5078L37.6483 12.9094L38.4526 13.1053C38.7225 13.1712 38.8391 13.4657 38.6784 13.6771Z" fill="white"/>
<path d="M38.8588 17.9947L42.9079 13.9034C43.1011 13.7081 43.4464 13.7582 43.5662 13.9986L45.111 17.0994C45.2201 17.3184 45.0783 17.5742 44.8227 17.6195L39.2288 18.61C38.8502 18.6771 38.5982 18.258 38.8588 17.9947Z" fill="white"/>
<path d="M44.8227 17.6195L39.2287 18.61C38.8501 18.6771 38.5982 18.2583 38.8588 17.9947L39.7043 17.1404L44.5976 16.2741C44.6294 16.2687 44.6591 16.2593 44.6866 16.2479L45.1108 17.0995C45.2201 17.3189 45.0782 17.5746 44.8227 17.6195Z" fill="white"/>
<path d="M16.1945 32.2184L22.6335 30.758C22.8576 30.7072 23.0816 30.8416 23.1232 31.052L23.7168 34.728C24.0396 36.3606 22.9545 37.949 21.2244 38.3765C19.5133 38.7992 17.7361 37.9459 17.1214 36.4063L15.9138 32.7085C15.8306 32.5002 15.9618 32.2712 16.1945 32.2184Z" fill="white"/>
<path d="M22.0057 28.1542C20.784 28.4311 16.6441 29.4895 15.4137 29.8049C15.2165 29.8554 15.0099 29.7601 14.9346 29.5836C13.0819 25.2442 11.5413 23.0741 11.8074 19.4637C12.0372 16.3442 13.6347 13.1991 16.9797 12.045C19.6733 11.1156 21.9207 12.7234 22.8546 15.0285C24.0574 17.9969 22.992 21.0498 22.5057 24.038C22.3694 24.8757 22.2826 25.67 22.2705 26.5141C22.2686 26.648 22.2944 27.3616 22.3103 27.7809C22.3169 27.9567 22.1901 28.1124 22.0057 28.1542Z" fill="white"/>
<path d="M28.6055 34.7253C29.8023 35.0836 33.8487 36.4172 35.0512 36.8143C35.2439 36.878 35.4575 36.7967 35.5463 36.6259C37.7333 32.4222 39.4394 30.3613 39.4561 26.7426C39.4705 23.6652 38.0386 20.3359 34.8771 18.996C32.2632 17.8882 29.8961 19.3408 28.7844 21.5771C27.3529 24.4569 28.1769 27.5734 28.4284 30.5864C28.4989 31.4311 28.5234 32.229 28.4696 33.0717C28.461 33.2054 28.3794 33.9154 28.3309 34.3326C28.3105 34.5075 28.4249 34.6712 28.6055 34.7253Z" fill="white"/>
<path d="M34.0837 39.169L27.7756 37.2799C27.5561 37.2142 27.3222 37.3333 27.2643 37.5403L26.385 41.1667C25.9355 42.7735 26.8936 44.4306 28.5857 44.9731C30.2593 45.5096 32.0986 44.7779 32.832 43.2836L34.3254 39.6766C34.4246 39.4744 34.3117 39.2372 34.0837 39.169Z" fill="white"/>
<path d="M22.271 26.5146C22.2689 26.6481 22.295 27.3621 22.3109 27.7815C22.3174 27.9573 22.1907 28.113 22.0061 28.1546C21.726 28.2177 21.2931 28.3224 20.777 28.4492C20.8725 28.3781 20.9297 28.2673 20.9254 28.1479C20.9094 27.7285 20.8834 27.0152 20.8856 26.881C20.8971 26.0368 20.984 25.2429 21.1201 24.4054C21.6066 21.4172 22.672 18.3639 21.4697 15.3958C20.659 13.3961 18.8602 11.9211 16.6387 12.1728C16.7501 12.1278 16.8645 12.0856 16.9803 12.0453C19.6739 11.1159 21.9214 12.7237 22.8552 15.0288C24.0575 17.9968 22.9927 21.0502 22.5063 24.0384C22.3695 24.8759 22.2833 25.6704 22.271 26.5146Z" fill="white"/>
<path d="M21.2239 38.377C20.9554 38.4435 20.6861 38.4784 20.4189 38.4844C21.8037 37.8804 22.6159 36.4739 22.3307 35.0325L21.7371 31.3571C21.7009 31.1752 21.5294 31.0505 21.3397 31.0518L22.6333 30.7586C22.8569 30.7076 23.0813 30.8424 23.1226 31.0524L23.7162 34.7285C24.039 36.3612 22.9539 37.9496 21.2239 38.377Z" fill="white"/>
<path d="M39.4542 26.7444C39.4368 30.3634 37.7307 32.4242 35.5439 36.6276C35.4549 36.7988 35.2413 36.88 35.0488 36.8163C34.781 36.7276 34.3727 36.5927 33.8855 36.4324C34.0006 36.4082 34.1034 36.3371 34.1585 36.2318C36.3452 32.0282 38.0514 29.9668 38.068 26.3484C38.0825 23.3072 36.684 20.0204 33.5996 18.6501C34.0144 18.7004 34.4415 18.8138 34.8751 18.9977C38.0362 20.3378 39.468 23.6669 39.4542 26.7444Z" fill="white"/>
<path d="M34.3269 39.6767L32.8335 43.2836C32.2617 44.4472 31.0203 45.1484 29.708 45.1484C29.3359 45.1484 28.9573 45.0921 28.5867 44.9733C28.3905 44.9102 28.2045 44.8324 28.0293 44.7405C28.127 44.7485 28.2247 44.7526 28.3225 44.7526C29.6348 44.7526 30.8762 44.0513 31.4473 42.8877L32.9407 39.2807C33.0399 39.0787 32.927 38.8412 32.6989 38.7727L34.0851 39.1693C34.3132 39.2372 34.4261 39.4747 34.3269 39.6767Z" fill="white"/>
</svg>
